<svg xmlns="http://www.w3.org/2000/svg" width="316.024" height="296.751" viewBox="0 0 316.024 296.751">
  <g id="Group_7" data-name="Group 7" transform="translate(-274.354 -500.023)">
    <g id="Group_5" data-name="Group 5" transform="translate(274.354 500.023)">
      <path id="Path_46" data-name="Path 46" d="M-2659.652-3348.567a11.911,11.911,0,0,1-4.519-.851,14.916,14.916,0,0,1-4.161-2.649,9.412,9.412,0,0,1-1.611-2.871,19.681,19.681,0,0,1-.8-5.387h25.233a26.29,26.29,0,0,1,10.066,1.927,24.384,24.384,0,0,1,8.1,5.333,24.5,24.5,0,0,1,5.548,8.245,27.142,27.142,0,0,1,1.791,10.127,28.574,28.574,0,0,1-1.835,10.217,22.54,22.54,0,0,1-5.592,8.425h.089a19.951,19.951,0,0,1-8.008,5.109,31.649,31.649,0,0,1-10.156,1.523h-32.929q.807-5.743,3.58-8.079a11.285,11.285,0,0,1,7.6-2.962h21.745a12.291,12.291,0,0,0,5.144-1.162,18.234,18.234,0,0,0,4.789-3.225h-.09a18.193,18.193,0,0,0,3.491-4.654,11.447,11.447,0,0,0,1.163-5.191,12.3,12.3,0,0,0-1.032-5.191,13.164,13.164,0,0,0-3.353-4.3,19.431,19.431,0,0,0-4.923-3.222,12.6,12.6,0,0,0-5.189-1.165Z" transform="translate(2678.443 3560.739)" fill="#5666ee"/>
      <path id="Path_47" data-name="Path 47" d="M-2292.044-3420.9q0-6.17,2.168-8.335a25.4,25.4,0,0,1,4.985-3.516,19.723,19.723,0,0,1,6.719-2v48.708h8.331v13.311h-8.331v7.47c0,1.875-.325,29.652-.975,31.313a11.115,11.115,0,0,1-2.709,4.113,15.043,15.043,0,0,1-4.281,2.977,16.445,16.445,0,0,1-5.906,1.352Z" transform="translate(2359.046 3622.266)" fill="#5666ee"/>
      <path id="Path_48" data-name="Path 48" d="M-2151.766-3406.963a21.142,21.142,0,0,1,1.084-4.708,10.89,10.89,0,0,1,2.6-4.275,11.182,11.182,0,0,1,4.064-2.6,21.537,21.537,0,0,1,6.123-1.083v36.9h10.925c0-.718-.03-1.384-.087-2s-.086-1.241-.086-1.888v-30.763a12.681,12.681,0,0,1,3.565-9.39,14.081,14.081,0,0,1,3.834-2.645,17.67,17.67,0,0,1,6.646-1.35v48.032h10.929v13.352h-94.588v-13.352h18.394v-9.957a12.883,12.883,0,0,1,3.68-9.521,12.108,12.108,0,0,1,4-2.541,26.938,26.938,0,0,1,6.6-1.572v23.59h12.42Z" transform="translate(2280.281 3618.959)" fill="#5666ee"/>
      <path id="Path_49" data-name="Path 49" d="M-1650.761-3382.726V-3400.1a31.232,31.232,0,0,1,8.765-22.02,39.2,39.2,0,0,1,10.385-6.367,31.013,31.013,0,0,1,11.905-2.268,29.489,29.489,0,0,1,11.848,2.322,43.433,43.433,0,0,1,10.334,6.421,39.533,39.533,0,0,1,6.546,10.093,28.664,28.664,0,0,1,2.435,11.818,28.92,28.92,0,0,1-1.3,8.689,38.352,38.352,0,0,1-4.11,8.689h17.205v13.352h-84.3v-13.352Zm13.873,0h17.2a14.755,14.755,0,0,0,6.275-1.406,19.637,19.637,0,0,0,5.3-3.571,37.326,37.326,0,0,0,3.788-6.061,14.21,14.21,0,0,0,1.623-6.383,14.517,14.517,0,0,0-1.409-6.383,23.7,23.7,0,0,0-4-5.736,16.072,16.072,0,0,0-5.142-3.9,15.711,15.711,0,0,0-6.435-1.189,15.424,15.424,0,0,0-6.332,1.189,16.039,16.039,0,0,0-5.14,3.9,25.528,25.528,0,0,0-4.11,5.627,13.529,13.529,0,0,0-1.622,6.492Z" transform="translate(1837.462 3618.959)" fill="#5666ee"/>
      <path id="Path_50" data-name="Path 50" d="M-1201.435-3488.53h18.828v-56.722a13.308,13.308,0,0,1,3.9-9.833v.109a9.978,9.978,0,0,1,3.631-2.539,18.624,18.624,0,0,1,6.34-1.244v83.579h-32.7Z" transform="translate(1457.552 3724.763)" fill="#5666ee"/>
      <path id="Path_51" data-name="Path 51" d="M-925.387-3475.179a25.835,25.835,0,0,1-6.467-1.081,10.558,10.558,0,0,1-4.295-2.486,14.928,14.928,0,0,1-2.772-4.108,12.985,12.985,0,0,1-1.032-5.408v-70.5a26.1,26.1,0,0,1,6.467,1.081,10.653,10.653,0,0,1,4.295,2.486,13.417,13.417,0,0,1,3.8,9.948Z" transform="translate(1241.411 3724.763)" fill="#5666ee"/>
      <g id="Group_6" data-name="Group 6" transform="translate(59.214)">
        <path id="Path_52" data-name="Path 52" d="M-675.735-3359.082q0-2.655,0-5.308c.005-33.474.093-66.946-.017-100.419-.058-17.725-12.978-30.6-30.607-30.792-7.672-.085-15.349-.126-23.018.061-16.044.391-28.721,13.66-28.811,29.966-.089,16.134,12.683,29.691,28.745,30.071,12.564.3,25.142.258,37.709.056,4.311-.069,5.26,1.776,5.141,5.576-.111,3.542-.03,6.359-5.014,6.252-12.891-.278-25.8.1-38.687-.242-21.924-.589-39.326-18.851-39.609-41.159-.283-22.387,16.526-40.99,38.5-42.157,8.94-.474,17.927-.266,26.887-.092a41.11,41.11,0,0,1,40.405,40.882c.19,20.082.037,40.167.036,60.251v5.938c1.249-.344,1.812-.332,2.112-.607,10.666-9.793,23.435-12.859,37.557-12.24,6.164.271,12.519.463,18.52-.7a29.747,29.747,0,0,0,24.153-32.055c-1.706-16.082-14.067-27.216-30.417-27.292-11.918-.055-23.837-.091-35.753.065-3.636.047-4.747-1.7-4.258-4.8.439-2.782-2.06-7.5,3.432-7.483,14.831.049,29.815-.7,44.456,1.12,21.771,2.712,35.914,22.758,34.206,45.81-1.481,19.976-19.363,36.594-40.135,37.148-6.852.183-13.714-.051-20.569.036q-18.369.237-27.983,15.961c-5.346,8.771-10.743,17.508-16.118,26.26Z" transform="translate(769.908 3507.466)" fill="#5666ee"/>
        <ellipse id="Ellipse_5" data-name="Ellipse 5" cx="4.305" cy="4.305" rx="4.305" ry="4.305" transform="translate(162.715 58.938)" fill="#5666ee"/>
        <ellipse id="Ellipse_6" data-name="Ellipse 6" cx="4.305" cy="4.305" rx="4.305" ry="4.305" transform="translate(143.105 58.938)" fill="#5666ee"/>
        <ellipse id="Ellipse_7" data-name="Ellipse 7" cx="4.305" cy="4.305" rx="4.305" ry="4.305" transform="translate(126.022 58.938)" fill="#5666ee"/>
        <ellipse id="Ellipse_8" data-name="Ellipse 8" cx="4.361" cy="4.361" rx="4.361" ry="4.361" transform="translate(67.336 38.587)" fill="#5666ee"/>
        <ellipse id="Ellipse_9" data-name="Ellipse 9" cx="4.361" cy="4.361" rx="4.361" ry="4.361" transform="translate(47.47 38.587)" fill="#5666ee"/>
        <ellipse id="Ellipse_10" data-name="Ellipse 10" cx="4.361" cy="4.361" rx="4.361" ry="4.361" transform="translate(30.165 38.587)" fill="#5666ee"/>
      </g>
    </g>
  </g>
</svg>
