<svg id="mail" xmlns="http://www.w3.org/2000/svg" width="37.604" height="29.925" viewBox="0 0 37.604 29.925">
  <path id="Path_45" data-name="Path 45" d="M4.521,9.346A2.089,2.089,0,0,1,6.61,7.257H40.015A2.089,2.089,0,0,1,42.1,9.346V33a4.178,4.178,0,0,1-4.178,4.178H8.678A4.178,4.178,0,0,1,4.5,33V10.023a2.022,2.022,0,0,1,.021-.292Zm4.157,4.646V33H37.926V13.992L27.734,24.185a6.267,6.267,0,0,1-8.862,0L8.678,13.988Zm3.284-2.624h22.68l-9.861,9.861a2.089,2.089,0,0,1-2.957,0l-9.861-9.861Z" transform="translate(-4.5 -7.257)" fill="#5666ee" fill-rule="evenodd"/>
</svg>
