<svg xmlns="http://www.w3.org/2000/svg" xmlns:xlink="http://www.w3.org/1999/xlink" width="147.001" height="147" viewBox="0 0 147.001 147">
  <defs>
    <linearGradient id="linear-gradient" x1="0.5" x2="0.5" y2="1" gradientUnits="objectBoundingBox">
      <stop offset="0" stop-color="#5666ee"/>
      <stop offset="1" stop-color="#0516a7"/>
    </linearGradient>
  </defs>
  <g id="target_2_" data-name="target (2)" transform="translate(0 -0.002)">
    <path id="Path_53" data-name="Path 53" d="M127.954,35.551a5.211,5.211,0,0,0,3.684-1.526L146.07,19.593a3.175,3.175,0,0,0-2.045-5.409l-7.68-.482,5.012-5.012a2.153,2.153,0,1,0-3.045-3.045L133.3,10.657l-.482-7.68A3.175,3.175,0,0,0,127.409.932L112.976,15.365a5.211,5.211,0,0,0-1.515,4.01l.5,7.9a67.952,67.952,0,0,0-94.284,97.489,2.153,2.153,0,0,0,3.186-2.9,63.668,63.668,0,0,1,90.573-89.345l-9.825,9.825a49.826,49.826,0,0,0-78,59.5h0A49.857,49.857,0,0,0,116.764,89.2a2.153,2.153,0,1,0-4.217-.875A45.551,45.551,0,0,1,27.433,99.876h0a44.957,44.957,0,0,1-5.041-20.816A45.5,45.5,0,0,1,98.562,45.394l-9.738,9.738a31.812,31.812,0,1,0,3.045,3.045l9.739-9.738a45.356,45.356,0,0,1,11.884,30.356,2.153,2.153,0,0,0,2.153,2.141h.013a2.154,2.154,0,0,0,2.141-2.166,49.651,49.651,0,0,0-13.146-33.377l9.826-9.826a63.669,63.669,0,0,1-86.56,92.969,2.153,2.153,0,1,0-2.711,3.347A67.945,67.945,0,0,0,135.884,79.06a67.392,67.392,0,0,0-13.362-40.469q-1.357-1.828-2.822-3.548c8.441.53,7.986.508,8.253.508ZM95.409,79.06a27.5,27.5,0,1,1-9.637-20.875l-9.8,9.8a13.709,13.709,0,1,0,3.046,3.045l9.8-9.8A27.348,27.348,0,0,1,95.409,79.06Zm-28.99,1.523a2.153,2.153,0,0,0,3.045,0l6.455-6.455a9.393,9.393,0,1,1-3.045-3.045l-6.455,6.455a2.153,2.153,0,0,0,0,3.045ZM115.759,19.1a.9.9,0,0,1,.263-.7L128.677,5.755l.562,8.962L116.3,27.661Zm3.582,11.6,12.944-12.944,8.962.562L128.592,30.98a.9.9,0,0,1-.7.263Z" transform="translate(0 0)" fill="url(#linear-gradient)"/>
  </g>
</svg>
