<svg xmlns="http://www.w3.org/2000/svg" width="48.003" height="48.001" viewBox="0 0 48.003 48.001">
  <path id="instagram" d="M27,3c-6.518,0-7.334.029-9.894.144A17.663,17.663,0,0,0,11.28,4.261,12.265,12.265,0,0,0,4.259,11.28a17.7,17.7,0,0,0-1.117,5.826C3.027,19.666,3,20.482,3,27s.027,7.334.144,9.894A17.663,17.663,0,0,0,4.261,42.72a12.262,12.262,0,0,0,7.021,7.021,17.7,17.7,0,0,0,5.826,1.117c2.56.115,3.378.144,9.894.144s7.334-.029,9.894-.144a17.663,17.663,0,0,0,5.826-1.117,12.262,12.262,0,0,0,7.021-7.021,17.7,17.7,0,0,0,1.117-5.826C50.974,34.334,51,33.517,51,27s-.029-7.334-.144-9.894a17.663,17.663,0,0,0-1.117-5.826,12.262,12.262,0,0,0-7.021-7.021A17.7,17.7,0,0,0,36.9,3.142C34.334,3.029,33.518,3,27,3m0,4.325c6.408,0,7.166.024,9.7.139a13.334,13.334,0,0,1,4.459.826,7.945,7.945,0,0,1,4.555,4.555,13.319,13.319,0,0,1,.826,4.456c.115,2.533.139,3.288.139,9.7s-.024,7.166-.139,9.7a13.418,13.418,0,0,1-.826,4.459,7.945,7.945,0,0,1-4.555,4.555,13.319,13.319,0,0,1-4.456.826c-2.53.115-3.288.139-9.7.139s-7.17-.024-9.7-.139a13.418,13.418,0,0,1-4.459-.826A7.945,7.945,0,0,1,8.29,41.155,13.236,13.236,0,0,1,7.464,36.7c-.115-2.533-.139-3.288-.139-9.7s.024-7.166.139-9.7a13.334,13.334,0,0,1,.826-4.459,7.509,7.509,0,0,1,1.8-2.76,7.469,7.469,0,0,1,2.76-1.8A13.236,13.236,0,0,1,17.3,7.464c2.533-.115,3.288-.139,9.7-.139M27,35a8,8,0,1,1,8-8,8,8,0,0,1-8,8m0-20.324A12.324,12.324,0,1,0,39.324,27,12.324,12.324,0,0,0,27,14.677m15.691-.486a2.88,2.88,0,1,1-2.88-2.88,2.88,2.88,0,0,1,2.88,2.88" transform="translate(-3 -3)" fill="#5666ee" fill-rule="evenodd"/>
</svg>
