<svg xmlns="http://www.w3.org/2000/svg" width="45.065" height="45.048" viewBox="0 0 45.065 45.048">
  <path id="phone" d="M43.231,48.423h-.294C8.89,46.466,4.057,17.738,3.381,8.972a5.2,5.2,0,0,1,4.782-5.6H17.71a3.465,3.465,0,0,1,3.223,2.182l2.632,6.481a3.465,3.465,0,0,1-.762,3.742l-3.69,3.726A16.234,16.234,0,0,0,32.245,32.674L36,28.948a3.465,3.465,0,0,1,3.759-.71L46.3,30.855a3.465,3.465,0,0,1,2.133,3.222v9.148a5.2,5.2,0,0,1-5.2,5.2ZM8.579,6.84A1.733,1.733,0,0,0,6.846,8.573v.139c.8,10.257,5.908,34.514,36.282,36.246a1.733,1.733,0,0,0,1.837-1.628V34.077L38.434,31.46,33.461,36.4l-.832-.1C17.556,34.4,15.511,19.33,15.511,19.175l-.1-.832,4.921-4.973-2.6-6.53Z" transform="translate(-3.364 -3.375)" fill="#5666ee"/>
</svg>
