<svg xmlns="http://www.w3.org/2000/svg" width="47.546" height="38.623" viewBox="0 0 47.546 38.623">
  <path id="twitter-bird" d="M47.546,4.575a19.752,19.752,0,0,1-4.873,5.037q.029.559.029,1.263a28.019,28.019,0,0,1-4.625,15.338,29.635,29.635,0,0,1-5.584,6.352A24.892,24.892,0,0,1,24.7,36.978a28.452,28.452,0,0,1-9.751,1.646A27.15,27.15,0,0,1,0,34.24a21.092,21.092,0,0,0,2.327.135A19.125,19.125,0,0,0,14.443,30.2a9.464,9.464,0,0,1-5.664-1.947,9.587,9.587,0,0,1-3.443-4.827,9.751,9.751,0,0,0,4.4-.164A9.507,9.507,0,0,1,4.14,19.9a9.438,9.438,0,0,1-2.224-6.2v-.12A9.627,9.627,0,0,0,6.335,14.8a9.69,9.69,0,0,1-3.17-3.476A9.518,9.518,0,0,1,1.994,6.684a9.584,9.584,0,0,1,1.319-4.9,27.773,27.773,0,0,0,8.893,7.2,27.106,27.106,0,0,0,11.209,2.994,9.538,9.538,0,0,1-.256-2.22,9.4,9.4,0,0,1,2.858-6.9,9.758,9.758,0,0,1,14.016.218A19.428,19.428,0,0,0,46.227.709a9.43,9.43,0,0,1-4.284,5.4A19.494,19.494,0,0,0,47.546,4.575Z" fill="#5666ee"/>
</svg>
