<svg xmlns="http://www.w3.org/2000/svg" xmlns:xlink="http://www.w3.org/1999/xlink" width="143" height="143" viewBox="0 0 143 143">
  <defs>
    <linearGradient id="linear-gradient" x1="0.5" x2="0.5" y2="1" gradientUnits="objectBoundingBox">
      <stop offset="0" stop-color="#5666ee"/>
      <stop offset="1" stop-color="#0516a7"/>
    </linearGradient>
  </defs>
  <g id="value_1_" data-name="value (1)" transform="translate(0)">
    <path id="Path_67" data-name="Path 67" d="M330.041,12.411a2.094,2.094,0,0,0,2.095-2.095V2.095a2.095,2.095,0,0,0-4.189,0v8.221A2.1,2.1,0,0,0,330.041,12.411Z" transform="translate(-236.352)" fill="url(#linear-gradient)"/>
    <path id="Path_68" data-name="Path 68" d="M249.969,28.779a2.095,2.095,0,0,0,3.167-2.742L247.8,19.875a2.095,2.095,0,1,0-3.167,2.742Z" transform="translate(-175.94 -13.802)" fill="url(#linear-gradient)"/>
    <path id="Path_69" data-name="Path 69" d="M393.391,28.992a2.095,2.095,0,0,0,2.955-.213l5.335-6.162a2.095,2.095,0,1,0-3.167-2.742l-5.335,6.162A2.094,2.094,0,0,0,393.391,28.992Z" transform="translate(-282.997 -13.803)" fill="url(#linear-gradient)"/>
    <path id="Path_70" data-name="Path 70" d="M231.805,133.94a6.244,6.244,0,0,0,8.68,0l32.222-30.98a6.268,6.268,0,0,0,.664-8.279l-4.325-5.749a2.095,2.095,0,1,0-3.348,2.519l3.714,4.937H252.786l-4.417-14.581h9.041a2.083,2.083,0,0,1,1.656.826l1.6,2.124a2.095,2.095,0,1,0,3.348-2.519l-1.6-2.124a6.293,6.293,0,0,0-5-2.5H214.881a6.294,6.294,0,0,0-5,2.5L198.919,94.682a6.268,6.268,0,0,0,.664,8.279Zm-12.415-33.362,12,27.148L203.15,100.578Zm49.75,0-28.235,27.147,12-27.147h16.24Zm-33,27.553-12.175-27.553h24.35Zm7.846-46.324,4.417,14.581H223.883L228.3,81.807Zm-30.767.826a2.083,2.083,0,0,1,1.657-.826h9.041l-4.417,14.581H202.878Z" transform="translate(-142.457 -55.94)" fill="url(#linear-gradient)"/>
    <path id="Path_71" data-name="Path 71" d="M127.934,317.873l-12.829,7.8a48.927,48.927,0,0,1-41.427,4.488,5.588,5.588,0,0,1-1.4-9.857l13.343-9.376A7.763,7.763,0,0,0,79.495,297l-34.278,7.52v-.433a5.438,5.438,0,0,0-5.432-5.432H22.608a2.095,2.095,0,0,0,0,4.189H39.784a1.244,1.244,0,0,1,1.243,1.243v47.4a1.244,1.244,0,0,1-1.243,1.242H4.282a.093.093,0,0,1-.093-.092v-49.7a.093.093,0,0,1,.093-.092h9.951a2.095,2.095,0,0,0,0-4.189H4.282A4.287,4.287,0,0,0,0,302.936v49.7a4.287,4.287,0,0,0,4.282,4.282h35.5a5.438,5.438,0,0,0,5.432-5.432v-1.065l1.227.354a101.9,101.9,0,0,0,28.321,4.013,103.652,103.652,0,0,0,10.8-.566,102.042,102.042,0,0,0,37.861-11.647,2.095,2.095,0,0,0-1.983-3.69A98.551,98.551,0,0,1,47.6,346.747l-2.388-.689v-37.25l35.176-7.717a3.573,3.573,0,0,1,2.82,6.413L69.87,316.88a9.778,9.778,0,0,0,2.447,17.248,53.1,53.1,0,0,0,44.965-4.871l12.83-7.8c3.678-2.238,8.805.2,8.7,3.839a3.889,3.889,0,0,1-1.415,2.888,98.973,98.973,0,0,1-8.708,6.4,2.095,2.095,0,0,0,2.293,3.507,103.176,103.176,0,0,0,9.078-6.674,8.077,8.077,0,0,0,2.94-6c.214-7.218-8.777-11.366-15.062-7.542Z" transform="translate(0 -213.915)" fill="url(#linear-gradient)"/>
    <path id="Path_72" data-name="Path 72" d="M98.013,428.144V423.6a2.095,2.095,0,0,0-4.189,0v4.543a2.095,2.095,0,0,0,4.189,0Z" transform="translate(-67.619 -303.781)" fill="url(#linear-gradient)"/>
  </g>
</svg>
