<svg xmlns="http://www.w3.org/2000/svg" xmlns:xlink="http://www.w3.org/1999/xlink" width="126.5" height="110.33" viewBox="0 0 126.5 110.33">
  <defs>
    <linearGradient id="linear-gradient" x1="0.5" x2="0.5" y2="1" gradientUnits="objectBoundingBox">
      <stop offset="0" stop-color="#5666ee"/>
      <stop offset="1" stop-color="#0516a7"/>
    </linearGradient>
  </defs>
  <g id="binocular" transform="translate(-2 -6.475)">
    <path id="Path_54" data-name="Path 54" d="M66.319,67.116a1.807,1.807,0,0,1-1.151-3.2,24.046,24.046,0,0,0,3.161-3.126A1.807,1.807,0,1,1,71.1,63.108a27.778,27.778,0,0,1-3.633,3.6,1.807,1.807,0,0,1-1.148.412Z" transform="translate(50.454 43.316)" fill="url(#linear-gradient)"/>
    <path id="Path_55" data-name="Path 55" d="M59.767,92.169a1.822,1.822,0,0,1-.6-.1A29.331,29.331,0,1,1,97.549,70.484a1.807,1.807,0,1,1-3.533-.759A25.709,25.709,0,1,0,60.363,88.656a1.807,1.807,0,0,1-.6,3.513Z" transform="translate(30.314 23.087)" fill="url(#linear-gradient)"/>
    <path id="Path_56" data-name="Path 56" d="M58.6,69.439a1.807,1.807,0,0,1-.231-3.6,24.757,24.757,0,0,0,4.194-.9,1.808,1.808,0,0,1,1.084,3.45,28.524,28.524,0,0,1-4.807,1.043,1.73,1.73,0,0,1-.24.011Z" transform="translate(44.221 47.119)" fill="url(#linear-gradient)"/>
    <path id="Path_57" data-name="Path 57" d="M64.954,81.03A20.549,20.549,0,1,1,85.5,60.479,20.549,20.549,0,0,1,64.954,81.03Zm0-37.484A16.935,16.935,0,1,0,81.889,60.479,16.935,16.935,0,0,0,64.954,43.546Z" transform="translate(34.227 27.005)" fill="url(#linear-gradient)"/>
    <path id="Path_58" data-name="Path 58" d="M41.359,79.627h-.02A1.807,1.807,0,0,1,39.552,77.8l.542-49.516a1.807,1.807,0,0,1,.607-1.332c10.81-9.592,30.42-11.338,43.726-3.889a1.807,1.807,0,0,1,.873,1.146L95.42,65.461a1.809,1.809,0,0,1-3.513.862l-9.93-40.48c-11.8-6.193-28.6-4.74-38.266,3.3l-.542,48.7A1.807,1.807,0,0,1,41.359,79.627Z" transform="translate(30.31 9.661)" fill="url(#linear-gradient)"/>
    <path id="Path_59" data-name="Path 59" d="M43.694,37.018a1.807,1.807,0,0,1-1.807-1.807V15.172a5.6,5.6,0,0,1,2.277-4.458C50.22,6.219,57.916,5.292,67.017,7.97a5.532,5.532,0,0,1,3.918,4.5l2.481,17.4a1.807,1.807,0,1,1-3.578.511L67.355,12.982A1.9,1.9,0,0,0,66,11.438c-8.067-2.369-14.51-1.666-19.68,2.179a1.963,1.963,0,0,0-.817,1.554V35.211a1.807,1.807,0,0,1-1.807,1.807Z" transform="translate(32.194 0.001)" fill="url(#linear-gradient)"/>
    <path id="Path_60" data-name="Path 60" d="M31.319,93.717A29.319,29.319,0,1,1,60.638,64.4,29.319,29.319,0,0,1,31.319,93.717Zm0-55.024a25.7,25.7,0,1,0,25.7,25.7,25.7,25.7,0,0,0-25.7-25.7Z" transform="translate(0 23.088)" fill="url(#linear-gradient)"/>
    <path id="Path_61" data-name="Path 61" d="M27.4,81.03A20.549,20.549,0,1,1,47.956,60.476,20.549,20.549,0,0,1,27.4,81.03Zm0-37.484A16.935,16.935,0,1,0,44.342,60.476,16.935,16.935,0,0,0,27.4,43.546Z" transform="translate(3.921 27.005)" fill="url(#linear-gradient)"/>
    <path id="Path_62" data-name="Path 62" d="M57.618,79.626a1.807,1.807,0,0,1-1.807-1.787l-.542-48.7C45.6,21.1,28.8,19.651,17,25.842l-9.93,40.48a1.809,1.809,0,0,1-3.513-.862l10.12-41.252a1.807,1.807,0,0,1,.875-1.146c13.3-7.445,32.915-5.7,43.717,3.893a1.807,1.807,0,0,1,.607,1.332L59.416,77.8a1.807,1.807,0,0,1-1.787,1.827Z" transform="translate(1.213 9.662)" fill="url(#linear-gradient)"/>
    <path id="Path_63" data-name="Path 63" d="M44.4,37.02a1.807,1.807,0,0,1-1.807-1.807V15.173a1.963,1.963,0,0,0-.817-1.554C36.6,9.773,30.167,9.07,22.091,11.44a1.9,1.9,0,0,0-1.355,1.543L18.252,30.389a1.807,1.807,0,0,1-3.578-.511l2.481-17.4a5.532,5.532,0,0,1,3.916-4.507c9.11-2.673,16.806-1.751,22.855,2.743A5.6,5.6,0,0,1,46.2,15.168V35.213A1.807,1.807,0,0,1,44.4,37.02Z" transform="translate(10.215 0)" fill="url(#linear-gradient)"/>
    <path id="Path_64" data-name="Path 64" d="M47.889,27.335a1.8,1.8,0,0,1-.839-.208,12.355,12.355,0,0,0-12.259,0,1.807,1.807,0,1,1-1.682-3.2,15.943,15.943,0,0,1,15.625,0,1.807,1.807,0,0,1-.844,3.406Z" transform="translate(24.329 12.437)" fill="url(#linear-gradient)"/>
    <path id="Path_65" data-name="Path 65" d="M40.911,55.78a15.926,15.926,0,0,1-7.505-2.053,1.807,1.807,0,1,1,1.7-3.19,10.366,10.366,0,0,0,11.038.056,1.807,1.807,0,1,1,1.9,3.072A13.431,13.431,0,0,1,40.911,55.78Z" transform="translate(24.576 35.354)" fill="url(#linear-gradient)"/>
    <path id="Path_66" data-name="Path 66" d="M34.185,48.034a1.807,1.807,0,0,1-.638-3.5,17.643,17.643,0,0,1,14.54.074,1.807,1.807,0,1,1-1.616,3.233c-3.316-1.659-7.127-1.626-11.651.074A1.791,1.791,0,0,1,34.185,48.034Z" transform="translate(24.518 29.485)" fill="url(#linear-gradient)"/>
  </g>
</svg>
